<mxfile host="app.diagrams.net" modified="2022-11-11T03:59:35.840Z" agent="5.0 (Macintosh; Intel Mac OS X 10_15_7) AppleWebKit/605.1.15 (KHTML, like Gecko) Version/16.1 Safari/605.1.15" etag="DYu4DNwaoh73kebLqeiG" version="20.5.3" type="github">
  <diagram id="Bw5U5ilo471GasQTLUOP" name="第 1 页">
    <mxGraphModel dx="1188" dy="711" grid="1" gridSize="10" guides="1" tooltips="1" connect="1" arrows="1" fold="1" page="1" pageScale="1" pageWidth="827" pageHeight="1169" background="#B0E3E6" math="0" shadow="0">
      <root>
        <mxCell id="0" />
        <mxCell id="1" parent="0" />
        <mxCell id="jF7H6Y1LhgNsABGmbEs7-26" value="global &amp;nbsp;k8s" style="rounded=1;whiteSpace=wrap;html=1;fontSize=16;dashed=1;verticalAlign=top;fillColor=#F08E81;strokeColor=#FFFFFF;fontColor=#1A1A1A;" parent="1" vertex="1">
          <mxGeometry x="100" y="498" width="380" height="382" as="geometry" />
        </mxCell>
        <mxCell id="jF7H6Y1LhgNsABGmbEs7-3" value="&lt;font style=&quot;font-size: 16px;&quot;&gt;openstack&lt;/font&gt;" style="whiteSpace=wrap;html=1;aspect=fixed;dashed=1;align=center;verticalAlign=top;rounded=1;fillColor=#7EA6E0;strokeColor=#FFFFFF;fontColor=#1A1A1A;" parent="1" vertex="1">
          <mxGeometry x="590" y="498" width="381" height="381" as="geometry" />
        </mxCell>
        <mxCell id="jF7H6Y1LhgNsABGmbEs7-9" value="" style="endArrow=none;html=1;rounded=1;fontSize=12;curved=1;labelBackgroundColor=#B0E3E6;strokeColor=#182E3E;fontColor=#1A1A1A;" parent="1" edge="1">
          <mxGeometry width="50" height="50" relative="1" as="geometry">
            <mxPoint x="530" y="688" as="sourcePoint" />
            <mxPoint x="1070" y="689.5" as="targetPoint" />
            <Array as="points">
              <mxPoint x="800" y="687.5" />
            </Array>
          </mxGeometry>
        </mxCell>
        <mxCell id="jF7H6Y1LhgNsABGmbEs7-11" value="public" style="text;html=1;resizable=0;autosize=1;align=center;verticalAlign=middle;points=[];fillColor=none;strokeColor=none;rounded=1;fontSize=16;fontColor=#1A1A1A;" parent="1" vertex="1">
          <mxGeometry x="990" y="620" width="70" height="30" as="geometry" />
        </mxCell>
        <mxCell id="jF7H6Y1LhgNsABGmbEs7-12" value="vpc" style="text;html=1;resizable=0;autosize=1;align=center;verticalAlign=middle;points=[];fillColor=none;strokeColor=none;rounded=1;fontSize=16;fontColor=#1A1A1A;" parent="1" vertex="1">
          <mxGeometry x="1000" y="730" width="50" height="30" as="geometry" />
        </mxCell>
        <mxCell id="jF7H6Y1LhgNsABGmbEs7-40" style="edgeStyle=orthogonalEdgeStyle;curved=1;rounded=1;orthogonalLoop=1;jettySize=auto;html=1;exitX=0.5;exitY=1;exitDx=0;exitDy=0;entryX=0.5;entryY=0;entryDx=0;entryDy=0;fontSize=14;labelBackgroundColor=#B0E3E6;strokeColor=#182E3E;fontColor=#1A1A1A;" parent="1" source="jF7H6Y1LhgNsABGmbEs7-34" target="jF7H6Y1LhgNsABGmbEs7-38" edge="1">
          <mxGeometry relative="1" as="geometry" />
        </mxCell>
        <mxCell id="jF7H6Y1LhgNsABGmbEs7-43" value="" style="rounded=1;whiteSpace=wrap;html=1;dashed=1;labelBackgroundColor=#B0E3E6;fontSize=14;verticalAlign=top;fillColor=none;strokeColor=#FFFFFF;fontColor=#1A1A1A;" parent="1" vertex="1">
          <mxGeometry x="118" y="710" width="835" height="160" as="geometry" />
        </mxCell>
        <mxCell id="jF7H6Y1LhgNsABGmbEs7-44" style="edgeStyle=orthogonalEdgeStyle;curved=1;rounded=1;orthogonalLoop=1;jettySize=auto;html=1;exitX=0;exitY=0.5;exitDx=0;exitDy=0;entryX=0.5;entryY=0;entryDx=0;entryDy=0;dashed=1;fontSize=14;labelBackgroundColor=#B0E3E6;strokeColor=#182E3E;fontColor=#1A1A1A;" parent="1" source="jF7H6Y1LhgNsABGmbEs7-34" target="jF7H6Y1LhgNsABGmbEs7-14" edge="1">
          <mxGeometry relative="1" as="geometry" />
        </mxCell>
        <mxCell id="jF7H6Y1LhgNsABGmbEs7-48" style="edgeStyle=orthogonalEdgeStyle;curved=1;rounded=1;orthogonalLoop=1;jettySize=auto;html=1;exitX=0;exitY=0.5;exitDx=0;exitDy=0;entryX=1;entryY=0.5;entryDx=0;entryDy=0;fontSize=12;dashed=1;labelBackgroundColor=#B0E3E6;strokeColor=#182E3E;fontColor=#1A1A1A;" parent="1" source="jF7H6Y1LhgNsABGmbEs7-38" target="jF7H6Y1LhgNsABGmbEs7-45" edge="1">
          <mxGeometry relative="1" as="geometry">
            <Array as="points">
              <mxPoint x="731" y="630" />
              <mxPoint x="520" y="630" />
              <mxPoint x="520" y="770" />
            </Array>
          </mxGeometry>
        </mxCell>
        <mxCell id="jF7H6Y1LhgNsABGmbEs7-49" value="fip" style="edgeLabel;html=1;align=center;verticalAlign=middle;resizable=0;points=[];fontSize=12;labelBackgroundColor=#B0E3E6;fontColor=#1A1A1A;" parent="jF7H6Y1LhgNsABGmbEs7-48" vertex="1" connectable="0">
          <mxGeometry x="-0.005" y="9" relative="1" as="geometry">
            <mxPoint as="offset" />
          </mxGeometry>
        </mxCell>
        <mxCell id="jF7H6Y1LhgNsABGmbEs7-38" value="&lt;span style=&quot;background-color: rgb(213, 232, 212);&quot;&gt;public-network&lt;/span&gt;" style="rounded=1;whiteSpace=wrap;html=1;labelBackgroundColor=#B0E3E6;fontSize=12;dashed=1;fillColor=#D5E8D4;strokeColor=#FFFFFF;fontColor=#1A1A1A;" parent="1" vertex="1">
          <mxGeometry x="730.5" y="620" width="100.5" height="45" as="geometry" />
        </mxCell>
        <mxCell id="jF7H6Y1LhgNsABGmbEs7-46" style="edgeStyle=orthogonalEdgeStyle;curved=1;rounded=1;orthogonalLoop=1;jettySize=auto;html=1;exitX=1;exitY=0.5;exitDx=0;exitDy=0;entryX=0;entryY=0.5;entryDx=0;entryDy=0;fontSize=12;labelBackgroundColor=#B0E3E6;strokeColor=#182E3E;fontColor=#1A1A1A;" parent="1" source="jF7H6Y1LhgNsABGmbEs7-14" target="jF7H6Y1LhgNsABGmbEs7-45" edge="1">
          <mxGeometry relative="1" as="geometry" />
        </mxCell>
        <mxCell id="jF7H6Y1LhgNsABGmbEs7-14" value="harbor-pods" style="rounded=1;whiteSpace=wrap;html=1;fontSize=12;fillColor=#FFCE9F;strokeColor=#FFFFFF;fontColor=#1A1A1A;" parent="1" vertex="1">
          <mxGeometry x="160" y="745" width="100" height="50" as="geometry" />
        </mxCell>
        <mxCell id="-fVl2y54sio7S9Z7-DYn-2" style="edgeStyle=orthogonalEdgeStyle;rounded=0;orthogonalLoop=1;jettySize=auto;html=1;exitX=0.5;exitY=0;exitDx=0;exitDy=0;entryX=0.5;entryY=1;entryDx=0;entryDy=0;" edge="1" parent="1" source="jF7H6Y1LhgNsABGmbEs7-15" target="jF7H6Y1LhgNsABGmbEs7-14">
          <mxGeometry relative="1" as="geometry" />
        </mxCell>
        <mxCell id="jF7H6Y1LhgNsABGmbEs7-15" value="harbor-pvcs" style="rounded=1;whiteSpace=wrap;html=1;fontSize=12;fillColor=#CCCCCC;strokeColor=#FFFFFF;fontColor=#1A1A1A;" parent="1" vertex="1">
          <mxGeometry x="170" y="820" width="80" height="40" as="geometry" />
        </mxCell>
        <mxCell id="jF7H6Y1LhgNsABGmbEs7-5" value="kuryrnetwork/&lt;br&gt;openstack-network" style="rounded=1;whiteSpace=wrap;html=1;fontSize=12;dashed=1;fillColor=#D5E8D4;strokeColor=#FFFFFF;fontColor=#1A1A1A;" parent="1" vertex="1">
          <mxGeometry x="410" y="810" width="240" height="50" as="geometry" />
        </mxCell>
        <mxCell id="jF7H6Y1LhgNsABGmbEs7-47" style="edgeStyle=orthogonalEdgeStyle;curved=1;rounded=1;orthogonalLoop=1;jettySize=auto;html=1;exitX=0.5;exitY=1;exitDx=0;exitDy=0;entryX=0;entryY=0.5;entryDx=0;entryDy=0;fontSize=12;labelBackgroundColor=#B0E3E6;strokeColor=#182E3E;fontColor=#1A1A1A;" parent="1" source="jF7H6Y1LhgNsABGmbEs7-45" target="jF7H6Y1LhgNsABGmbEs7-5" edge="1">
          <mxGeometry relative="1" as="geometry">
            <Array as="points">
              <mxPoint x="390" y="780" />
              <mxPoint x="390" y="835" />
            </Array>
          </mxGeometry>
        </mxCell>
        <mxCell id="jF7H6Y1LhgNsABGmbEs7-45" value="&lt;span style=&quot;background-color: rgb(248, 206, 204);&quot;&gt;kuryrport&lt;/span&gt;" style="rounded=1;whiteSpace=wrap;html=1;labelBackgroundColor=#B0E3E6;fontSize=12;fillColor=#F8CECC;strokeColor=#FFFFFF;fontColor=#1A1A1A;" parent="1" vertex="1">
          <mxGeometry x="320" y="760" width="60" height="20" as="geometry" />
        </mxCell>
        <mxCell id="jF7H6Y1LhgNsABGmbEs7-22" value="vrouter" style="rounded=1;whiteSpace=wrap;html=1;fontSize=12;fillColor=#C3ABD0;strokeColor=#FFFFFF;fontColor=#1A1A1A;" parent="1" vertex="1">
          <mxGeometry x="731" y="745" width="100" height="50" as="geometry" />
        </mxCell>
        <mxCell id="jF7H6Y1LhgNsABGmbEs7-23" style="edgeStyle=orthogonalEdgeStyle;curved=1;rounded=1;orthogonalLoop=1;jettySize=auto;html=1;exitX=1;exitY=0.5;exitDx=0;exitDy=0;entryX=0;entryY=0.5;entryDx=0;entryDy=0;fontSize=16;labelBackgroundColor=#B0E3E6;strokeColor=#182E3E;fontColor=#1A1A1A;" parent="1" source="jF7H6Y1LhgNsABGmbEs7-5" target="jF7H6Y1LhgNsABGmbEs7-22" edge="1">
          <mxGeometry relative="1" as="geometry" />
        </mxCell>
        <mxCell id="jF7H6Y1LhgNsABGmbEs7-39" style="edgeStyle=orthogonalEdgeStyle;curved=1;rounded=1;orthogonalLoop=1;jettySize=auto;html=1;exitX=0.5;exitY=0;exitDx=0;exitDy=0;entryX=0.5;entryY=1;entryDx=0;entryDy=0;fontSize=14;labelBackgroundColor=#B0E3E6;strokeColor=#182E3E;fontColor=#1A1A1A;" parent="1" source="jF7H6Y1LhgNsABGmbEs7-22" target="jF7H6Y1LhgNsABGmbEs7-38" edge="1">
          <mxGeometry relative="1" as="geometry" />
        </mxCell>
        <mxCell id="-fVl2y54sio7S9Z7-DYn-3" value="&lt;span style=&quot;caret-color: rgb(26, 26, 26); color: rgb(26, 26, 26); font-family: Helvetica; font-size: 14px; font-style: normal; font-variant-caps: normal; font-weight: 400; letter-spacing: normal; text-align: center; text-indent: 0px; text-transform: none; word-spacing: 0px; -webkit-text-stroke-width: 0px; text-decoration: none; float: none; display: inline !important;&quot;&gt;tenant-harbor-ns&lt;/span&gt;" style="text;html=1;align=center;verticalAlign=middle;resizable=0;points=[];autosize=1;strokeColor=none;fillColor=none;labelBackgroundColor=none;" vertex="1" parent="1">
          <mxGeometry x="340" y="710" width="130" height="30" as="geometry" />
        </mxCell>
        <mxCell id="jF7H6Y1LhgNsABGmbEs7-34" value="&lt;span style=&quot;background-color: rgb(169, 196, 235);&quot;&gt;trivy-server&lt;/span&gt;" style="rounded=1;whiteSpace=wrap;html=1;labelBackgroundColor=#B0E3E6;fontSize=12;fillColor=#A9C4EB;strokeColor=#FFFFFF;fontColor=#1A1A1A;" parent="1" vertex="1">
          <mxGeometry x="730" y="540" width="100.5" height="45" as="geometry" />
        </mxCell>
        <mxCell id="-fVl2y54sio7S9Z7-DYn-4" value="&lt;font color=&quot;#1a1a1a&quot;&gt;&lt;span style=&quot;caret-color: rgb(26, 26, 26); font-size: 14px;&quot;&gt;project&lt;/span&gt;&lt;/font&gt;" style="text;html=1;align=center;verticalAlign=middle;resizable=0;points=[];autosize=1;strokeColor=none;fillColor=none;labelBackgroundColor=none;" vertex="1" parent="1">
          <mxGeometry x="600" y="710" width="70" height="30" as="geometry" />
        </mxCell>
      </root>
    </mxGraphModel>
  </diagram>
</mxfile>
